<svg xmlns="http://www.w3.org/2000/svg" viewBox="0 0 396.53 277.78">
<path fill="black" d="M158.73,79.36V198.41L261.56,139.08,158.73,79.36ZM388.13,234.33c-4.64,17.1-17.68,30.43-34.5,35.06C322.38,277.78,198.12,277.78,198.12,277.78s-123.97,0-155.07-8.39C26.36,264.76,13.03,251.43,8.1,234.33,0,203.62,0,139.03,0,139.03S0,74.44,8.1,43.45c4.93-17.1,18.26-30.14,34.95-35.06C74.15,0,198.12,0,198.12,0s124.38,0,155.51,8.4c17.1,4.64,30.14,17.68,34.5,35.06,8.4,30.98,8.4,95.58,8.4,95.58s0,64.6-8.4,95.3Z"/>
</svg>